<svg version="1.1" id="Layer_1" xmlns="http://www.w3.org/2000/svg" xmlns:xlink="http://www.w3.org/1999/xlink" x="0px" y="0px"
	 width="100%" viewBox="0 0 396 394" enable-background="new 0 0 396 394" xml:space="preserve">
<path fill="#F6F7F7" opacity="1.000000" stroke="none" 
	d="
M1.000000,65.000000 
	C1.000000,43.684589 1.000000,22.369177 1.000004,1.055169 
	C133.000015,1.056574 265.000000,1.056574 397.000000,1.056574 
	C397.000000,21.096327 397.000000,41.079506 396.705566,61.404797 
	C395.606232,61.499027 394.801270,61.251144 393.959412,60.646687 
	C392.011414,58.856380 390.100342,57.422653 388.025024,55.798889 
	C387.828888,55.283772 387.796967,54.958687 387.818756,54.234276 
	C386.323120,51.218624 384.773773,48.602303 383.007050,45.778343 
	C382.473785,44.851238 382.157898,44.131775 381.871521,43.068245 
	C381.329193,42.129601 380.757355,41.535030 379.895447,40.767136 
	C375.738312,36.058678 371.871216,31.523540 367.950928,26.644840 
	C367.157837,25.910151 366.417999,25.519024 365.362915,25.026943 
	C359.706848,21.477894 354.365997,18.029799 348.933807,14.257700 
	C345.333099,12.710835 341.823761,11.487970 337.940552,10.311995 
	C336.388458,9.980047 335.210236,9.601211 333.873474,8.933220 
	C330.498932,8.361622 327.282898,8.079178 323.687622,7.893229 
	C322.545776,7.859004 321.783173,7.728284 320.882111,7.238327 
	C319.504547,6.588192 318.265564,6.043355 317.026276,6.042692 
	C241.756149,6.002468 166.485962,5.998313 91.215874,6.072718 
	C89.802795,6.074114 88.390678,7.056254 86.659485,7.702229 
	C85.900864,7.744100 85.460869,7.664542 84.951790,7.296972 
	C83.914818,7.203573 82.946915,7.398186 81.564919,7.721813 
	C79.416183,7.849666 77.681541,7.848505 75.679085,7.593532 
	C72.596863,7.939040 69.782463,8.538360 66.636353,9.357740 
	C64.509682,9.964457 62.714725,10.351111 60.673004,10.534886 
	C57.278297,11.792256 54.130360,13.252505 50.717358,14.938625 
	C48.400108,16.149242 46.347923,17.133989 43.935043,18.097023 
	C42.367706,19.004129 41.161068,19.932955 39.757084,21.134537 
	C33.671288,26.926186 27.782833,32.445080 21.554989,38.033363 
	C20.859629,38.862770 20.503658,39.622787 20.084183,40.705276 
	C18.922659,42.679512 17.824638,44.331276 16.396889,46.053963 
	C14.793334,48.967480 13.519507,51.810078 12.266077,54.758743 
	C12.286472,54.864811 12.133211,55.017052 11.755412,55.015327 
	C9.235981,57.053070 7.088198,59.086132 4.954971,61.134350 
	C3.625275,62.411057 2.317573,63.710667 1.000000,65.000000 
z"/>
<path fill="#D4D4D5" opacity="1.000000" stroke="none" 
	d="
M343.000000,395.000000 
	C249.312439,395.000000 155.624878,395.000000 61.409145,394.650085 
	C56.417206,391.942230 51.839798,389.772125 47.527664,387.163544 
	C44.397667,385.270081 40.393200,383.386475 43.591560,378.476379 
	C46.964104,380.147186 49.978844,381.731201 53.103157,383.655457 
	C54.065964,384.210876 54.919197,384.426056 56.144241,384.584229 
	C64.339615,385.993622 72.158485,388.704559 79.987465,388.734070 
	C159.887344,389.035400 239.789001,388.956451 319.689697,388.782349 
	C326.098083,388.768402 333.166718,388.705170 338.767853,386.135162 
	C349.522919,381.200317 359.444946,374.449890 369.782410,368.845673 
	C369.554291,370.315063 369.549927,371.622742 368.912537,372.431610 
	C363.159485,379.732910 357.213623,386.752838 348.022644,390.144836 
	C346.023438,390.882629 344.657562,393.336517 343.000000,395.000000 
z"/>
<path fill="#E8E8E8" opacity="1.000000" stroke="none" 
	d="
M0.999997,353.000000 
	C1.000000,262.979095 1.000000,172.958206 1.394910,82.468277 
	C3.363296,81.997375 4.936770,81.995506 6.653732,82.442955 
	C6.807305,159.274628 6.812442,235.656982 6.848296,312.039337 
	C6.849537,314.682587 7.157773,317.325714 7.170048,320.227295 
	C6.921406,320.661469 6.825635,320.837250 6.418314,321.089905 
	C6.424320,322.112640 6.741879,323.058472 7.242805,324.336823 
	C7.890199,327.456146 8.354223,330.242950 8.565623,333.257233 
	C7.628231,335.100677 6.157605,336.833862 6.378408,338.314850 
	C9.029100,356.093842 14.607281,372.601288 27.365515,386.020294 
	C29.751913,388.530304 31.147278,391.982574 33.000000,395.000000 
	C30.299986,395.000000 27.599974,395.000000 24.445423,394.633789 
	C23.311010,392.994904 22.815083,391.572876 21.922369,390.472900 
	C14.253022,381.023041 7.167032,371.283905 4.104786,359.181488 
	C3.552526,356.998871 2.058968,355.054413 0.999997,353.000000 
z"/>
<path fill="#E7E6E7" opacity="1.000000" stroke="none" 
	d="
M397.000000,87.000000 
	C397.000000,178.354233 397.000000,269.708466 396.652588,361.590057 
	C395.827026,362.537354 395.223022,362.875671 394.889771,363.389557 
	C390.446686,370.240448 386.164062,377.199127 381.579468,383.953094 
	C378.966278,387.802795 375.875671,391.328461 373.000000,395.000000 
	C370.299988,395.000000 367.599976,395.000000 364.486633,394.655945 
	C366.724457,391.365753 369.468231,388.496857 372.005005,385.455353 
	C375.814545,380.887787 380.505859,376.694092 383.021637,371.473663 
	C392.316742,352.185394 394.250305,351.342804 391.649963,329.599609 
	C391.487915,329.511597 391.163666,329.335754 391.371155,329.025513 
	C391.559326,328.467163 391.539978,328.219116 391.715698,327.680542 
	C391.951599,326.929230 391.992462,326.468353 392.246399,325.898285 
	C392.588989,325.491882 392.768494,325.228882 393.391144,324.901550 
	C393.943695,317.348450 394.107880,309.893890 394.225800,302.438599 
	C394.227936,302.302094 393.678864,302.156921 393.242065,301.566681 
	C393.070007,234.390869 393.041382,167.664185 393.030243,100.937508 
	C393.030060,99.954483 393.247803,98.971436 393.616425,97.948929 
	C394.246887,97.605667 394.624786,97.301880 395.003113,96.549133 
	C395.877167,93.112427 393.059998,89.315018 397.000000,87.000000 
z"/>
<path fill="#E1E0E1" opacity="1.000000" stroke="none" 
	d="
M33.458069,395.000000 
	C31.147278,391.982574 29.751913,388.530304 27.365515,386.020294 
	C14.607281,372.601288 9.029100,356.093842 6.378408,338.314850 
	C6.157605,336.833862 7.628231,335.100677 8.813990,333.525391 
	C12.571711,345.049652 18.536428,355.064056 25.977371,364.679077 
	C26.447746,367.313110 26.325342,369.936462 27.493853,371.708527 
	C31.665516,378.034973 36.283173,384.066833 40.714367,390.222931 
	C41.843163,391.791107 42.906559,393.406372 44.000008,395.000000 
	C40.638714,395.000000 37.277424,395.000000 33.458069,395.000000 
z"/>
<path fill="#E1E0E1" opacity="1.000000" stroke="none" 
	d="
M391.812012,329.687653 
	C394.250305,351.342804 392.316742,352.185394 383.021637,371.473663 
	C380.505859,376.694092 375.814545,380.887787 372.005005,385.455353 
	C369.468231,388.496857 366.724457,391.365753 364.036682,394.655945 
	C359.975464,395.000000 355.950897,395.000000 351.518799,394.657532 
	C351.970276,393.591248 352.746429,392.726410 353.701050,392.165192 
	C364.728485,385.682556 373.140381,376.718750 378.736237,365.257629 
	C379.571838,363.546173 378.846344,361.072510 378.880585,358.587982 
	C384.433075,349.259277 389.707794,340.191986 391.302612,329.543365 
	C391.470520,329.597900 391.812012,329.687653 391.812012,329.687653 
z"/>
<path fill="#F0EEEE" opacity="1.000000" stroke="none" 
	d="
M0.999997,353.468628 
	C2.058968,355.054413 3.552526,356.998871 4.104786,359.181488 
	C7.167032,371.283905 14.253022,381.023041 21.922369,390.472900 
	C22.815083,391.572876 23.311010,392.994904 23.995443,394.633789 
	C20.638712,395.000000 17.277426,395.000000 13.453218,394.630310 
	C9.731568,388.469666 6.507366,382.658539 3.157868,376.920593 
	C2.841459,376.378540 1.738027,376.295929 0.999996,376.000000 
	C1.000000,368.645752 1.000000,361.291504 0.999997,353.468628 
z"/>
<path fill="#DADADA" opacity="1.000000" stroke="none" 
	d="
M44.467613,395.000000 
	C42.906559,393.406372 41.843163,391.791107 40.714367,390.222931 
	C36.283173,384.066833 31.665516,378.034973 27.493853,371.708527 
	C26.325342,369.936462 26.447746,367.313110 26.274372,364.802490 
	C32.125092,369.146332 37.679432,373.767975 43.233765,378.389618 
	C40.393200,383.386475 44.397667,385.270081 47.527664,387.163544 
	C51.839798,389.772125 56.417206,391.942230 60.940487,394.650085 
	C55.645069,395.000000 50.290142,395.000000 44.467613,395.000000 
z"/>
<path fill="#F0EEEE" opacity="1.000000" stroke="none" 
	d="
M373.454102,395.000000 
	C375.875671,391.328461 378.966278,387.802795 381.579468,383.953094 
	C386.164062,377.199127 390.446686,370.240448 394.889771,363.389557 
	C395.223022,362.875671 395.827026,362.537354 396.652588,362.058716 
	C397.000000,367.022095 397.000000,372.044189 396.653046,377.571655 
	C391.870728,383.718018 387.435364,389.359009 383.000000,395.000000 
	C379.969391,395.000000 376.938812,395.000000 373.454102,395.000000 
z"/>
<path fill="#DADADA" opacity="1.000000" stroke="none" 
	d="
M378.843018,358.951477 
	C378.846344,361.072510 379.571838,363.546173 378.736237,365.257629 
	C373.140381,376.718750 364.728485,385.682556 353.701050,392.165192 
	C352.746429,392.726410 351.970276,393.591248 351.055603,394.657532 
	C348.629425,395.000000 346.258881,395.000000 343.444153,395.000000 
	C344.657562,393.336517 346.023438,390.882629 348.022644,390.144836 
	C357.213623,386.752838 363.159485,379.732910 368.912537,372.431610 
	C369.549927,371.622742 369.554291,370.315063 369.912720,368.554657 
	C372.929779,364.897552 375.886414,361.924500 378.843018,358.951477 
z"/>
<path fill="#F6F7F7" opacity="1.000000" stroke="none" 
	d="
M383.474121,395.000000 
	C387.435364,389.359009 391.870728,383.718018 396.653046,378.038513 
	C397.000000,383.583374 397.000000,389.166779 397.000000,395.000000 
	C392.652557,395.000000 388.300385,395.000000 383.474121,395.000000 
z"/>
<path fill="#F6F7F7" opacity="1.000000" stroke="none" 
	d="
M0.999996,376.469391 
	C1.738027,376.295929 2.841459,376.378540 3.157868,376.920593 
	C6.507366,382.658539 9.731568,388.469666 12.995149,394.630310 
	C9.057541,395.000000 5.115082,395.000000 1.000000,395.000000 
	C1.000000,388.980347 1.000000,382.959564 0.999996,376.469391 
z"/>
<path fill="#F0EEEE" opacity="1.000000" stroke="none" 
	d="
M6.510245,81.993637 
	C4.936770,81.995506 3.363296,81.997375 1.394910,81.999619 
	C1.000000,77.975456 1.000000,73.950912 1.345622,69.404602 
	C3.093283,67.874664 4.495322,66.866493 6.148572,65.677673 
	C6.713350,68.052208 7.080400,69.595421 7.504313,71.368973 
	C7.561176,71.599312 7.265011,71.970055 6.960777,72.084106 
	C6.734007,73.132088 6.811472,74.066017 6.982646,75.397446 
	C7.129016,76.871109 7.181678,77.947273 7.087376,79.380188 
	C6.797022,80.489182 6.653634,81.241409 6.510245,81.993637 
z"/>
<path fill="#ECECED" opacity="1.000000" stroke="none" 
	d="
M397.000000,86.533882 
	C393.059998,89.315018 395.877167,93.112427 394.781738,96.422302 
	C394.170074,96.190788 393.780304,95.637154 393.251556,94.633774 
	C392.985962,90.129074 392.859283,86.074097 392.869263,81.639198 
	C392.916656,80.193237 392.827393,79.127197 392.861298,77.716263 
	C392.714325,76.238144 392.444183,75.104935 392.266907,73.646698 
	C392.418091,72.879227 392.476440,72.436783 392.904785,71.995300 
	C394.516510,71.997498 395.758240,71.998749 397.000000,72.000000 
	C397.000000,76.689255 397.000000,81.378510 397.000000,86.533882 
z"/>
<path fill="#ECECED" opacity="1.000000" stroke="none" 
	d="
M7.447450,71.138634 
	C7.080400,69.595421 6.713350,68.052208 6.148572,65.677673 
	C4.495322,66.866493 3.093283,67.874664 1.345622,68.941422 
	C1.000000,67.933327 1.000000,66.866661 1.000000,65.399994 
	C2.317573,63.710667 3.625275,62.411057 4.954971,61.134350 
	C7.088198,59.086132 9.235981,57.053070 11.759643,55.411774 
	C10.576931,60.919502 9.012191,66.029068 7.447450,71.138634 
z"/>
<path fill="#F0EEEE" opacity="1.000000" stroke="none" 
	d="
M397.000000,71.550400 
	C395.758240,71.998749 394.516510,71.997498 392.731750,71.679558 
	C392.195984,70.891319 392.203217,70.419762 392.523529,69.898315 
	C392.889893,67.566742 392.943115,65.285065 392.998169,63.001759 
	C393.000000,63.000126 393.003662,62.996643 393.403290,62.997131 
	C394.868622,62.998413 395.934296,62.999207 397.000000,63.000000 
	C397.000000,65.700272 397.000000,68.400536 397.000000,71.550400 
z"/>
<path fill="#ECECED" opacity="1.000000" stroke="none" 
	d="
M397.000000,62.750000 
	C395.934296,62.999207 394.868622,62.998413 393.425415,62.701828 
	C393.364044,61.938454 393.680206,61.470863 393.996338,61.003269 
	C394.801270,61.251144 395.606232,61.499027 396.705566,61.873455 
	C397.000000,62.000000 397.000000,62.500000 397.000000,62.750000 
z"/>
<path fill="#20293B" opacity="1.000000" stroke="none" 
	d="
M7.504313,71.368973 
	C9.012191,66.029068 10.576931,60.919502 12.137442,55.413494 
	C12.133211,55.017052 12.286472,54.864811 12.540697,54.534439 
	C14.105487,51.463726 15.416054,48.723385 16.726620,45.983044 
	C17.824638,44.331276 18.922659,42.679512 20.362442,40.561695 
	C21.100929,39.385086 21.497654,38.674526 21.894377,37.963970 
	C27.782833,32.445080 33.671288,26.926186 40.086533,21.093624 
	C41.840794,19.892883 43.068264,19.005810 44.295738,18.118738 
	C46.347923,17.133989 48.400108,16.149242 51.080872,14.922064 
	C54.779560,13.365677 57.849667,12.051722 60.919773,10.737766 
	C62.714725,10.351111 64.509682,9.964457 67.009483,9.428019 
	C70.217979,9.059948 72.721634,8.841661 75.668640,8.779171 
	C78.034157,9.289601 79.956100,9.953079 81.878494,9.954375 
	C160.667252,10.007480 239.456039,10.013082 318.244751,9.940514 
	C320.475677,9.938459 322.705719,9.023005 325.293213,8.420779 
	C328.444183,8.612861 331.238068,8.917618 334.031982,9.222375 
	C335.210236,9.601211 336.388458,9.980047 338.193146,10.576817 
	C342.221436,12.057071 345.623291,13.319391 349.025146,14.581707 
	C354.365997,18.029799 359.706848,21.477894 365.489441,25.312447 
	C366.622223,26.128738 367.313171,26.558573 368.004150,26.988403 
	C371.871216,31.523540 375.738312,36.058678 379.932373,41.075279 
	C380.786926,42.175262 381.314484,42.793781 381.842041,43.412304 
	C382.157898,44.131775 382.473785,44.851238 383.041260,46.127731 
	C384.783569,49.334373 386.274323,51.983990 387.765045,54.633606 
	C387.796967,54.958687 387.828888,55.283772 388.011963,56.127644 
	C388.551910,57.429035 388.940643,58.211636 389.308685,59.339027 
	C389.743103,60.717247 390.198212,61.750683 390.607300,62.840912 
	C390.561279,62.897701 390.596252,63.039650 390.588196,63.467873 
	C390.868561,65.856026 391.157043,67.815948 391.145203,69.959557 
	C390.894867,71.423973 390.944855,72.704704 390.970337,74.353516 
	C391.543335,75.834778 392.140747,76.947968 392.738159,78.061165 
	C392.827393,79.127197 392.916656,80.193237 392.501495,81.766106 
	C391.664978,83.484268 391.043030,84.695419 391.042267,85.906960 
	C390.996033,159.896561 390.991333,233.886185 391.073090,307.875702 
	C391.074615,309.247101 392.160400,310.617279 392.882202,312.376434 
	C392.925995,313.849060 392.827789,314.933289 392.468567,316.075806 
	C392.381134,316.750275 392.554749,317.366455 392.860474,318.328552 
	C392.873993,319.142944 392.755402,319.611389 392.262024,320.088104 
	C388.869965,322.586487 389.164124,325.230743 391.520630,327.971039 
	C391.539978,328.219116 391.559326,328.467163 391.395508,329.053101 
	C391.212311,329.390930 391.134705,329.488831 391.134705,329.488831 
	C389.707794,340.191986 384.433075,349.259277 378.880615,358.587982 
	C375.886414,361.924500 372.929779,364.897552 369.842865,368.161621 
	C359.444946,374.449890 349.522919,381.200317 338.767853,386.135162 
	C333.166718,388.705170 326.098083,388.768402 319.689697,388.782349 
	C239.789001,388.956451 159.887344,389.035400 79.987465,388.734070 
	C72.158485,388.704559 64.339615,385.993622 55.951649,384.325928 
	C54.589355,383.854797 53.791473,383.584991 52.993584,383.315186 
	C49.978844,381.731201 46.964104,380.147186 43.591568,378.476379 
	C37.679432,373.767975 32.125092,369.146332 26.273752,364.401306 
	C18.536428,355.064056 12.571711,345.049652 9.066616,333.297974 
	C8.354223,330.242950 7.890199,327.456146 7.326626,323.959412 
	C7.061341,322.504028 6.895604,321.758514 6.729866,321.013000 
	C6.825635,320.837250 6.921406,320.661469 7.530990,320.092590 
	C8.361881,318.481384 8.955833,317.263458 8.956487,316.045166 
	C8.998107,238.400696 9.000449,160.756165 8.916178,83.111755 
	C8.914697,81.748375 7.819300,80.386177 7.234340,79.023430 
	C7.181678,77.947273 7.129016,76.871109 7.146692,75.042358 
	C7.233023,73.516533 7.249017,72.743294 7.265012,71.970055 
	C7.265011,71.970055 7.561176,71.599312 7.504313,71.368973 
M167.993912,220.464325 
	C167.793900,219.999435 167.593903,219.534546 167.347672,218.241257 
	C168.474792,217.792877 169.600311,216.959808 170.729248,216.955139 
	C183.174026,216.903549 195.619324,216.980774 208.826324,216.864395 
	C208.929855,213.923569 209.033371,210.982758 208.945404,207.213303 
	C209.851685,200.866196 210.757980,194.519104 211.787964,187.305725 
	C198.812408,187.305725 185.998993,187.305725 172.803711,187.305725 
	C174.471680,178.409286 176.108490,170.438522 177.403473,162.412567 
	C177.950531,159.021988 179.198135,157.770996 182.841843,157.837646 
	C195.473892,158.068771 208.115479,157.755859 220.748993,157.945251 
	C224.462143,158.000931 226.473526,156.604568 228.926743,153.817688 
	C235.911163,145.883270 243.590912,138.560959 251.664810,130.890015 
	C251.962296,130.229843 252.259781,129.569672 252.557251,128.909500 
	C251.918747,128.781708 251.280228,128.653931 249.753830,128.587143 
	C221.364075,128.556839 192.974335,128.518646 164.584579,128.500000 
	C152.747772,128.492218 152.747650,128.511139 150.613129,139.917877 
	C150.307831,141.549423 150.003860,143.181213 149.016037,144.939697 
	C148.611542,145.956467 148.207047,146.973251 147.097382,148.198868 
	C145.072586,158.423904 142.952896,168.631882 141.107010,178.889114 
	C140.758438,180.826035 141.498917,182.958939 141.842133,185.701538 
	C141.662598,186.128830 141.483063,186.556137 140.841888,187.146561 
	C140.889206,187.762573 140.936523,188.378601 141.092316,189.818146 
	C140.440430,192.841904 139.788544,195.865646 138.619690,199.174484 
	C138.354538,200.111359 138.089401,201.048248 137.218414,202.120361 
	C137.159683,203.082703 137.100952,204.045029 137.246429,205.874817 
	C137.380463,206.139923 137.514481,206.405029 137.728394,207.157669 
	C137.742050,207.517410 137.604813,207.805145 136.537018,208.121613 
	C136.531937,209.555847 136.526871,210.990067 136.629013,213.240051 
	C135.478287,219.123016 134.327560,225.005981 132.727722,231.046417 
	C132.743713,231.682358 132.759705,232.318314 132.839172,233.710403 
	C132.650696,234.436874 132.462234,235.163345 131.769318,236.093063 
	C131.741608,237.039795 131.713898,237.986542 131.752167,239.611115 
	C131.580917,240.022324 131.409668,240.433533 130.820312,240.788483 
	C130.542557,240.831436 130.264999,240.875641 129.991486,240.027802 
	C129.991486,236.502960 129.991486,232.978104 129.991486,229.942978 
	C126.583893,230.295837 123.178642,230.655930 119.771751,230.999741 
	C111.062897,231.878601 102.355927,232.777649 93.642365,233.607269 
	C91.170082,233.842667 88.535217,234.425674 86.232933,233.838150 
	C83.714882,233.195572 79.922890,232.992783 80.677048,228.527832 
	C82.729950,216.373718 84.954018,204.243622 86.698700,192.045166 
	C87.268303,188.062576 86.570686,183.898773 86.313110,179.209091 
	C86.469131,178.831924 86.625153,178.454758 87.273262,177.825912 
	C87.221397,177.229141 87.169540,176.632370 87.015144,175.248825 
	C87.252228,174.504883 87.489311,173.760941 88.180115,172.851379 
	C88.136200,172.239197 88.092293,171.626999 87.939178,170.239105 
	C88.161514,169.498596 88.383850,168.758102 89.138092,167.835068 
	C89.139343,166.904831 89.140602,165.974594 89.009682,164.339966 
	C89.170570,163.898285 89.331459,163.456589 90.043091,162.860367 
	C90.089989,161.926437 90.136887,160.992493 90.022972,159.352417 
	C90.182434,158.906235 90.341904,158.460052 91.050659,157.855179 
	C91.088745,156.921112 91.126831,155.987045 91.010506,154.269318 
	C91.233574,153.518158 91.456635,152.766998 92.141548,151.861542 
	C92.114227,151.247375 92.086914,150.633209 91.941811,149.199707 
	C93.060120,142.532623 94.178436,135.865540 95.414337,128.497437 
	C86.001862,128.497437 77.226021,128.715851 68.469559,128.399017 
	C64.497849,128.255310 63.490303,129.873138 62.880222,133.406601 
	C60.889519,144.936310 58.523708,156.401260 55.789574,168.088852 
	C55.769836,169.040726 55.750103,169.992584 55.762817,171.706314 
	C55.556545,172.434677 55.350273,173.163040 54.706673,174.066605 
	C54.746571,174.699081 54.786469,175.331558 54.873131,176.757278 
	C49.139095,206.306290 43.405056,235.855286 37.632851,265.600983 
	C39.086460,265.844299 39.885574,266.093933 40.685028,266.095032 
	C66.483551,266.130280 92.282257,266.173492 118.080284,266.064636 
	C119.406723,266.059052 120.727539,264.719788 122.834167,264.001282 
	C123.878609,264.006348 124.923058,264.011444 125.975098,264.645172 
	C126.621117,265.206024 127.267128,265.766907 128.849792,266.175293 
	C136.440582,266.159973 144.054108,265.782562 151.614166,266.256989 
	C156.628601,266.571686 159.422241,265.259705 160.171021,259.880219 
	C160.145233,259.262451 160.119461,258.644714 159.986282,257.256531 
	C160.186142,256.514832 160.385986,255.773132 161.120728,254.857880 
	C161.139709,253.922745 161.158707,252.987595 161.075699,251.268143 
	C161.305328,250.523056 161.534973,249.777969 162.211777,248.869781 
	C162.175995,248.256989 162.140213,247.644180 161.987198,246.247772 
	C162.239456,245.509369 162.491730,244.770981 163.195175,243.864349 
	C163.147491,243.247986 163.099823,242.631638 162.929443,241.203247 
	C163.841858,236.813126 164.754257,232.423004 166.137100,227.884766 
	C166.108429,227.261520 166.079758,226.638290 165.937363,225.245911 
	C166.144714,224.507278 166.352051,223.768646 167.091171,222.874329 
	C167.396317,222.245087 167.701462,221.615829 167.993912,220.464325 
M357.504730,237.444580 
	C357.504730,237.444580 357.414307,237.342438 357.951050,236.844772 
	C358.315277,235.979782 358.679504,235.114807 359.673096,233.920532 
	C365.142853,228.601059 366.337616,222.250961 364.363770,214.561615 
	C364.132965,214.069366 363.902161,213.577103 363.647186,212.335693 
	C363.153961,210.922516 362.660706,209.509338 362.374268,207.416550 
	C362.069153,206.064621 361.764008,204.712677 361.565613,202.592880 
	C361.534088,200.274612 361.502563,197.956360 361.882355,195.065643 
	C361.949066,193.678085 362.015747,192.290543 362.382690,190.106598 
	C362.300476,188.435562 362.218231,186.764511 362.347198,184.552322 
	C361.961548,183.922836 361.575867,183.293365 360.992767,182.022598 
	C358.045868,178.187790 354.166168,179.215881 351.163055,181.139877 
	C346.187775,184.327393 341.749969,188.353867 336.158173,192.044876 
	C335.534515,192.042358 334.910889,192.039856 334.620300,191.291824 
	C333.321838,190.594742 332.031952,189.311676 330.723572,189.292542 
	C319.400360,189.127060 308.061462,189.499908 296.753571,189.050201 
	C291.205627,188.829559 288.656097,190.337463 288.151794,196.097458 
	C287.555023,202.913742 286.139496,209.658356 284.953491,217.234802 
	C293.976746,217.234802 302.167114,217.234802 312.087524,217.234802 
	C309.148590,222.267731 306.960297,226.015213 304.116730,229.974869 
	C298.238434,232.521835 292.581726,236.142471 286.439392,237.409882 
	C269.553528,240.894180 254.355713,230.946884 250.318710,214.518784 
	C245.452515,194.716354 256.406586,166.428009 281.391663,158.619507 
	C294.221100,154.609955 306.863159,155.449036 316.325134,167.319839 
	C317.017975,168.189056 319.225464,168.565903 320.407623,168.182220 
	C322.914062,167.368637 325.228943,165.940475 327.585938,164.695358 
	C334.142639,161.231766 340.680725,157.732910 347.126648,154.300964 
	C346.835663,153.181168 346.767303,152.683365 346.575867,152.238571 
	C346.313477,151.628952 345.992737,151.037292 345.636780,150.476151 
	C335.423645,134.374054 320.236664,127.019875 301.709961,126.056969 
	C280.303955,124.944397 261.830444,132.551025 246.032822,146.553848 
	C236.192902,155.275833 227.914246,165.357819 223.420425,178.081802 
	C222.322067,181.191742 220.537582,184.059372 218.452377,186.778778 
	C217.701721,186.954544 216.951080,187.130310 216.200424,187.306076 
	C217.137283,187.869354 218.074158,188.432632 219.360580,189.449554 
	C218.998276,190.312469 218.345505,191.166580 218.319031,192.039688 
	C218.079132,199.950684 217.525925,207.883514 217.871460,215.774612 
	C218.668793,233.984039 227.245850,248.316544 241.958405,258.505920 
	C257.989136,269.608276 276.007904,270.592224 294.546326,266.295288 
	C303.516602,264.216156 311.741089,260.506836 319.332306,254.809097 
	C318.044067,252.917160 316.819336,251.526657 316.071564,249.914871 
	C315.177948,247.988861 314.692291,245.873566 314.731079,244.007721 
	C319.173401,251.263870 323.587646,258.537445 328.071594,265.767822 
	C329.929443,268.763580 331.936401,271.666870 333.875549,274.612183 
	C334.316559,274.399261 334.757599,274.186340 335.198608,273.973419 
	C334.566742,271.174011 333.934875,268.374634 333.303009,265.575256 
	C336.585114,266.953918 338.710968,268.986359 340.999847,270.814758 
	C345.094971,274.086090 349.517853,277.132416 355.047791,275.926178 
	C361.627228,274.491058 367.960602,273.367004 374.093140,278.374268 
	C369.008820,272.569641 369.089508,266.461792 371.315826,259.923615 
	C371.991608,257.939026 371.892914,255.642365 371.901550,253.487640 
	C371.932343,245.817474 368.308563,240.952408 360.866333,238.018509 
	C359.779724,237.857468 358.693146,237.696411 357.504730,237.444580 
M49.619843,270.001221 
	C73.046394,270.001221 96.472939,270.001221 119.899490,270.001221 
	C119.898132,269.775604 119.896767,269.549988 119.895401,269.324371 
	C94.021492,269.324371 68.147583,269.324371 42.273674,269.324371 
	C42.272316,269.549988 42.270954,269.775604 42.269596,270.001221 
	C44.402908,270.001221 46.536224,270.001221 49.619843,270.001221 
M200.500641,162.001831 
	C207.224533,162.001831 213.948425,162.001831 220.672302,162.001831 
	C208.229263,161.003601 195.807968,160.944092 183.389374,161.099762 
	C182.205780,161.114594 181.039047,162.474152 179.864487,163.209442 
	C182.915146,163.105316 185.212814,162.230637 187.558243,162.074677 
	C191.523407,161.811005 195.518799,162.001999 200.500641,162.001831 
M94.574516,152.583130 
	C94.061607,154.447876 93.548698,156.312637 93.035789,158.177383 
	C93.622276,158.258072 94.208771,158.338760 94.795265,158.419449 
	C94.942856,156.452026 95.090446,154.484589 94.574516,152.583130 
M132.657959,269.997406 
	C134.733414,269.997406 136.808868,269.997406 138.884323,269.997406 
	C138.881256,269.743225 138.878204,269.489044 138.875153,269.234863 
	C135.307663,269.234863 131.740158,269.234863 128.172653,269.234863 
	C128.159851,269.407074 128.147034,269.579285 128.134232,269.751526 
	C129.360748,269.833374 130.587280,269.915222 132.657959,269.997406 
M151.057800,269.996887 
	C152.016022,269.927277 152.974243,269.857666 153.932480,269.788055 
	C153.922745,269.642700 153.913025,269.497375 153.903305,269.352051 
	C150.707672,269.352051 147.512054,269.352051 144.316422,269.352051 
	C144.319138,269.567200 144.321854,269.782349 144.324570,269.997498 
	C146.294861,269.997498 148.265152,269.997498 151.057800,269.996887 
M170.845108,221.508453 
	C170.426010,221.212189 170.006912,220.915924 169.587830,220.619644 
	C169.476044,221.058121 169.364273,221.496597 169.252487,221.935059 
	C169.742355,221.987564 170.232239,222.040054 170.845108,221.508453 
z"/>
<path fill="#0E1A2D" opacity="1.000000" stroke="none" 
	d="
M324.936188,8.533455 
	C322.705719,9.023005 320.475677,9.938459 318.244751,9.940514 
	C239.456039,10.013082 160.667252,10.007480 81.878494,9.954375 
	C79.956100,9.953079 78.034157,9.289601 75.858513,8.593898 
	C75.718979,8.117667 75.832939,7.982505 75.946907,7.847343 
	C77.681541,7.848505 79.416183,7.849666 81.932693,7.861742 
	C83.483330,7.776767 84.252098,7.680876 85.020866,7.584985 
	C85.460869,7.664542 85.900864,7.744100 87.110840,7.842295 
	C164.609116,7.877510 241.337402,7.895259 318.065704,7.897648 
	C319.050659,7.897679 320.035583,7.701933 321.020538,7.597566 
	C321.783173,7.728284 322.545776,7.859004 323.892670,8.091915 
	C324.630035,8.307223 324.783112,8.420339 324.936188,8.533455 
z"/>
<path fill="#ECECED" opacity="1.000000" stroke="none" 
	d="
M320.882111,7.238329 
	C320.035583,7.701933 319.050659,7.897679 318.065704,7.897648 
	C241.337402,7.895259 164.609116,7.877510 87.429466,7.720867 
	C88.390678,7.056254 89.802795,6.074114 91.215874,6.072718 
	C166.485962,5.998313 241.756149,6.002468 317.026276,6.042692 
	C318.265564,6.043355 319.504547,6.588192 320.882111,7.238329 
z"/>
<path fill="#F0EEEE" opacity="1.000000" stroke="none" 
	d="
M389.329376,58.994240 
	C388.940643,58.211636 388.551910,57.429035 388.176208,56.317680 
	C390.100342,57.422653 392.011414,58.856380 393.959412,60.646690 
	C393.680206,61.470863 393.364044,61.938454 393.025757,62.701340 
	C393.003662,62.996643 393.000000,63.000126 392.598480,63.002174 
	C391.663391,63.016033 391.129822,63.027840 390.596252,63.039650 
	C390.596252,63.039650 390.561279,62.897701 390.704346,62.449707 
	C390.341431,60.999226 389.835388,59.996735 389.329376,58.994240 
z"/>
<path fill="#ECECED" opacity="1.000000" stroke="none" 
	d="
M60.673004,10.534886 
	C57.849667,12.051722 54.779560,13.365677 51.345940,14.696194 
	C54.130360,13.252505 57.278297,11.792256 60.673004,10.534886 
z"/>
<path fill="#ECECED" opacity="1.000000" stroke="none" 
	d="
M325.293213,8.420778 
	C324.783112,8.420339 324.630035,8.307223 324.271912,7.995420 
	C327.282898,8.079178 330.498932,8.361622 333.873474,8.933220 
	C331.238068,8.917618 328.444183,8.612861 325.293213,8.420778 
z"/>
<path fill="#ECECED" opacity="1.000000" stroke="none" 
	d="
M348.933807,14.257706 
	C345.623291,13.319391 342.221436,12.057071 338.566986,10.529928 
	C341.823761,11.487970 345.333099,12.710835 348.933807,14.257706 
z"/>
<path fill="#ECECED" opacity="1.000000" stroke="none" 
	d="
M75.679085,7.593532 
	C75.832939,7.982505 75.718979,8.117667 75.415154,8.438101 
	C72.721634,8.841661 70.217979,9.059948 67.341202,9.207957 
	C69.782463,8.538360 72.596863,7.939040 75.679085,7.593532 
z"/>
<path fill="#ECECED" opacity="1.000000" stroke="none" 
	d="
M387.818756,54.234276 
	C386.274323,51.983990 384.783569,49.334373 383.258636,46.335365 
	C384.773773,48.602303 386.323120,51.218624 387.818756,54.234276 
z"/>
<path fill="#ECECED" opacity="1.000000" stroke="none" 
	d="
M16.396889,46.053963 
	C15.416054,48.723385 14.105487,51.463726 12.520301,54.428371 
	C13.519507,51.810078 14.793334,48.967480 16.396889,46.053963 
z"/>
<path fill="#ECECED" opacity="1.000000" stroke="none" 
	d="
M43.935043,18.097023 
	C43.068264,19.005810 41.840794,19.892883 40.283875,20.820869 
	C41.161068,19.932955 42.367706,19.004129 43.935043,18.097023 
z"/>
<path fill="#ECECED" opacity="1.000000" stroke="none" 
	d="
M84.951790,7.296972 
	C84.252098,7.680876 83.483330,7.776767 82.346786,7.732728 
	C82.946915,7.398186 83.914818,7.203573 84.951790,7.296972 
z"/>
<path fill="#ECECED" opacity="1.000000" stroke="none" 
	d="
M381.871521,43.068237 
	C381.314484,42.793781 380.786926,42.175262 380.222443,41.248604 
	C380.757355,41.535030 381.329193,42.129601 381.871521,43.068237 
z"/>
<path fill="#ECECED" opacity="1.000000" stroke="none" 
	d="
M21.554989,38.033363 
	C21.497654,38.674526 21.100929,39.385086 20.425947,40.239223 
	C20.503658,39.622787 20.859629,38.862770 21.554989,38.033363 
z"/>
<path fill="#ECECED" opacity="1.000000" stroke="none" 
	d="
M367.950928,26.644840 
	C367.313171,26.558573 366.622223,26.128738 365.804688,25.413403 
	C366.417999,25.519024 367.157837,25.910151 367.950928,26.644840 
z"/>
<path fill="#D1D1D1" opacity="1.000000" stroke="none" 
	d="
M53.103157,383.655457 
	C53.791473,383.584991 54.589355,383.854797 55.579834,384.382904 
	C54.919197,384.426056 54.065964,384.210876 53.103157,383.655457 
z"/>
<path fill="#0E1A2D" opacity="1.000000" stroke="none" 
	d="
M7.087376,79.380188 
	C7.819300,80.386177 8.914697,81.748375 8.916178,83.111755 
	C9.000449,160.756165 8.998107,238.400696 8.956487,316.045166 
	C8.955833,317.263458 8.361881,318.481384 7.683861,319.834198 
	C7.157773,317.325714 6.849537,314.682587 6.848296,312.039337 
	C6.812442,235.656982 6.807305,159.274628 6.653732,82.442955 
	C6.653634,81.241409 6.797022,80.489182 7.087376,79.380188 
z"/>
<path fill="#F0EEEE" opacity="1.000000" stroke="none" 
	d="
M6.418314,321.089905 
	C6.895604,321.758514 7.061341,322.504028 7.143257,323.626953 
	C6.741879,323.058472 6.424320,322.112640 6.418314,321.089905 
z"/>
<path fill="#151F30" opacity="1.000000" stroke="none" 
	d="
M392.740265,311.988037 
	C392.160400,310.617279 391.074615,309.247101 391.073090,307.875702 
	C390.991333,233.886185 390.996033,159.896561 391.042267,85.906960 
	C391.043030,84.695419 391.664978,83.484268 392.364868,82.146034 
	C392.859283,86.074097 392.985962,90.129074 393.116577,94.983643 
	C393.201630,96.518288 393.282745,97.253349 393.363831,97.988403 
	C393.247803,98.971436 393.030060,99.954483 393.030243,100.937508 
	C393.041382,167.664185 393.070007,234.390869 393.113831,302.004211 
	C393.000458,305.923279 392.870361,308.955658 392.740265,311.988037 
z"/>
<path fill="#F0EEEE" opacity="1.000000" stroke="none" 
	d="
M392.882202,312.376434 
	C392.870361,308.955658 393.000458,305.923279 393.258789,302.453369 
	C393.678864,302.156921 394.227936,302.302094 394.225800,302.438599 
	C394.107880,309.893890 393.943695,317.348450 393.315186,324.541565 
	C392.725433,323.812500 392.604767,323.344971 392.587769,322.648987 
	C392.673218,321.640289 392.654999,320.860046 392.636810,320.079803 
	C392.755402,319.611389 392.873993,319.142944 392.981079,318.008423 
	C392.889557,316.900696 392.809601,316.459106 392.729614,316.017517 
	C392.827789,314.933289 392.925995,313.849060 392.882202,312.376434 
z"/>
<path fill="#151F30" opacity="1.000000" stroke="none" 
	d="
M392.262024,320.088104 
	C392.654999,320.860046 392.673218,321.640289 392.305420,322.736572 
	C391.957367,324.037567 391.995331,325.022522 392.033295,326.007507 
	C391.992462,326.468353 391.951599,326.929230 391.715698,327.680542 
	C389.164124,325.230743 388.869965,322.586487 392.262024,320.088104 
z"/>
<path fill="#48505C" opacity="1.000000" stroke="none" 
	d="
M392.246399,325.898285 
	C391.995331,325.022522 391.957367,324.037567 392.201721,322.964996 
	C392.604767,323.344971 392.725433,323.812500 392.922089,324.640045 
	C392.768494,325.228882 392.588989,325.491882 392.246399,325.898285 
z"/>
<path fill="#F0EEEE" opacity="1.000000" stroke="none" 
	d="
M393.616455,97.948929 
	C393.282745,97.253349 393.201630,96.518288 393.255493,95.433372 
	C393.780304,95.637154 394.170074,96.190788 394.781250,96.871262 
	C394.624786,97.301880 394.246887,97.605667 393.616455,97.948929 
z"/>
<path fill="#151F30" opacity="1.000000" stroke="none" 
	d="
M391.302612,329.543365 
	C391.134705,329.488831 391.212311,329.390930 391.187988,329.363342 
	C391.163666,329.335754 391.487915,329.511597 391.649963,329.599609 
	C391.812012,329.687653 391.470520,329.597900 391.302612,329.543365 
z"/>
<path fill="#ECECED" opacity="1.000000" stroke="none" 
	d="
M6.960777,72.084106 
	C7.249017,72.743294 7.233023,73.516533 7.052983,74.644859 
	C6.811472,74.066017 6.734007,73.132088 6.960777,72.084106 
z"/>
<path fill="#48505C" opacity="1.000000" stroke="none" 
	d="
M392.861298,77.716263 
	C392.140747,76.947968 391.543335,75.834778 391.264771,74.316040 
	C391.780457,73.930901 391.977234,73.951317 392.174042,73.971733 
	C392.444183,75.104935 392.714325,76.238144 392.861298,77.716263 
z"/>
<path fill="#151F30" opacity="1.000000" stroke="none" 
	d="
M392.266907,73.646698 
	C391.977234,73.951317 391.780457,73.930901 391.289246,73.947968 
	C390.944855,72.704704 390.894867,71.423973 391.334351,70.011932 
	C391.823792,69.880623 392.210449,69.948212 392.210449,69.948212 
	C392.203217,70.419762 392.195984,70.891319 392.361755,71.678604 
	C392.476440,72.436783 392.418091,72.879227 392.266907,73.646698 
z"/>
<path fill="#ECECED" opacity="1.000000" stroke="none" 
	d="
M392.523560,69.898315 
	C392.210449,69.948212 391.823792,69.880623 391.634644,69.828247 
	C391.157043,67.815948 390.868561,65.856026 390.588196,63.467873 
	C391.129822,63.027840 391.663391,63.016033 392.596649,63.003807 
	C392.943115,65.285065 392.889893,67.566742 392.523560,69.898315 
z"/>
<path fill="#77787B" opacity="1.000000" stroke="none" 
	d="
M314.029968,243.840256 
	C314.692291,245.873566 315.177948,247.988861 316.071564,249.914871 
	C316.819336,251.526657 318.044067,252.917160 319.332306,254.809097 
	C311.741089,260.506836 303.516602,264.216156 294.546326,266.295288 
	C276.007904,270.592224 257.989136,269.608276 241.958405,258.505920 
	C227.245850,248.316544 218.668793,233.984039 217.871460,215.774612 
	C217.525925,207.883514 218.079132,199.950684 218.319031,192.039688 
	C218.345505,191.166580 218.998276,190.312469 219.219635,188.897339 
	C219.075302,187.909561 219.071930,187.473969 219.068558,187.038391 
	C220.537582,184.059372 222.322067,181.191742 223.420425,178.081802 
	C227.914246,165.357819 236.192902,155.275833 246.032822,146.553848 
	C261.830444,132.551025 280.303955,124.944397 301.709961,126.056969 
	C320.236664,127.019875 335.423645,134.374054 345.636780,150.476151 
	C345.992737,151.037292 346.313477,151.628952 346.575867,152.238571 
	C346.767303,152.683365 346.835663,153.181168 347.126648,154.300964 
	C340.680725,157.732910 334.142639,161.231766 327.585938,164.695358 
	C325.228943,165.940475 322.914062,167.368637 320.407623,168.182220 
	C319.225464,168.565903 317.017975,168.189056 316.325134,167.319839 
	C306.863159,155.449036 294.221100,154.609955 281.391663,158.619507 
	C256.406586,166.428009 245.452515,194.716354 250.318710,214.518784 
	C254.355713,230.946884 269.553528,240.894180 286.439392,237.409882 
	C292.581726,236.142471 298.238434,232.521835 304.530029,229.958725 
	C304.943298,229.942581 305.109497,230.127243 305.067261,230.476761 
	C302.330536,236.677750 302.462738,236.927185 308.020813,239.980560 
	C310.136810,241.142975 312.073212,242.632278 314.046875,243.953110 
	C314.002258,243.933609 314.029968,243.840256 314.029968,243.840256 
z"/>
<path fill="#F9F9F9" opacity="1.000000" stroke="none" 
	d="
M132.273758,235.889816 
	C132.462234,235.163345 132.650696,234.436874 133.022644,233.134064 
	C133.196350,232.001450 133.186600,231.445206 133.176849,230.888947 
	C134.327560,225.005981 135.478287,219.123016 136.614868,212.841705 
	C136.600739,212.443375 136.654129,212.382004 136.840240,212.248230 
	C137.062836,211.397507 137.099335,210.680557 137.270996,209.653671 
	C137.376343,208.902786 137.346512,208.461838 137.316681,208.020905 
	C137.604813,207.805145 137.742050,207.517410 137.916565,206.634277 
	C138.448715,203.703720 138.792679,201.296555 139.136658,198.889389 
	C139.788544,195.865646 140.440430,192.841904 141.205444,189.190674 
	C141.313553,188.036621 141.308533,187.510025 141.303528,186.983429 
	C141.483063,186.556137 141.662598,186.128830 141.982941,185.010880 
	C143.060928,179.603546 144.109528,174.905640 144.909058,170.165741 
	C146.088303,163.174576 147.090240,156.153488 148.482910,148.972183 
	C149.098480,147.470444 149.398880,146.141678 149.699280,144.812897 
	C150.003860,143.181213 150.307831,141.549423 150.613129,139.917877 
	C152.747650,128.511139 152.747772,128.492218 164.584579,128.500000 
	C192.974335,128.518646 221.364075,128.556839 250.297348,128.858826 
	C250.892914,129.752930 250.944977,130.375336 250.997025,130.997757 
	C243.590912,138.560959 235.911163,145.883270 228.926743,153.817688 
	C226.473526,156.604568 224.462143,158.000931 220.748993,157.945251 
	C208.115479,157.755859 195.473892,158.068771 182.841843,157.837646 
	C179.198135,157.770996 177.950531,159.021988 177.403473,162.412567 
	C176.108490,170.438522 174.471680,178.409286 172.803711,187.305725 
	C185.998993,187.305725 198.812408,187.305725 211.787964,187.305725 
	C210.757980,194.519104 209.851685,200.866196 208.845856,207.966110 
	C208.519028,211.486984 208.291748,214.255035 208.064484,217.023102 
	C195.619324,216.980774 183.174026,216.903549 170.729248,216.955139 
	C169.600311,216.959808 168.474792,217.792877 167.174957,218.940613 
	C167.000824,220.093109 166.999405,220.546249 166.793518,221.195831 
	C166.579147,221.938187 166.569275,222.484100 166.559387,223.030014 
	C166.352051,223.768646 166.144714,224.507278 165.806305,225.836578 
	C165.672394,226.962463 165.669525,227.497681 165.666656,228.032883 
	C164.754257,232.423004 163.841858,236.813126 162.818420,241.822937 
	C162.719589,242.972610 162.731796,243.502594 162.743988,244.032578 
	C162.491730,244.770981 162.239456,245.509369 161.851120,246.839844 
	C161.731552,247.965561 161.748077,248.499222 161.764618,249.032867 
	C161.534973,249.777969 161.305328,250.523056 160.914597,251.900818 
	C160.697601,253.366135 160.641708,254.198776 160.585831,255.031433 
	C160.385986,255.773132 160.186142,256.514832 159.859100,257.850006 
	C159.725525,258.973633 159.719147,259.503754 159.712753,260.033905 
	C159.422241,265.259705 156.628601,266.571686 151.614166,266.256989 
	C144.054108,265.782562 136.440582,266.159973 128.081192,265.721191 
	C127.168953,264.887024 127.025330,264.506958 127.116180,263.832703 
	C127.535286,262.015503 127.719917,260.492432 128.100327,258.718262 
	C128.382233,257.635956 128.468369,256.804749 128.731628,255.563675 
	C128.948486,252.794495 128.988251,250.435181 129.184540,247.852997 
	C129.574615,246.738037 129.808167,245.845932 130.025177,244.962646 
	C130.008621,244.971466 130.044998,244.973114 130.098236,244.760376 
	C130.151489,244.547623 130.063980,244.117828 130.225037,243.837585 
	C130.670181,242.653137 130.954285,241.748932 131.238403,240.844727 
	C131.409668,240.433533 131.580917,240.022324 131.949371,239.034317 
	C132.188965,237.601624 132.231369,236.745712 132.273758,235.889816 
z"/>
<path fill="#F9F9F9" opacity="1.000000" stroke="none" 
	d="
M88.606178,168.017593 
	C88.383850,168.758102 88.161514,169.498596 87.826988,170.841431 
	C87.718666,171.968155 87.722527,172.492584 87.726395,173.016998 
	C87.489311,173.760941 87.252228,174.504883 86.908813,175.802979 
	C86.795380,176.930603 86.788277,177.504105 86.781174,178.077591 
	C86.625153,178.454758 86.469131,178.831924 86.185074,179.815567 
	C82.513588,198.836105 78.970139,217.250168 75.273903,236.458160 
	C92.664474,236.458160 109.370560,236.458160 126.330536,236.458160 
	C126.070686,239.439255 125.872810,241.709396 125.472496,244.325867 
	C125.228241,245.464203 125.186424,246.256226 124.957932,247.247070 
	C124.760406,247.969727 124.749557,248.493546 124.536453,249.379639 
	C124.250740,250.837296 124.167297,251.932678 123.902733,253.233276 
	C123.687584,253.964539 123.653549,254.490585 123.406784,255.388519 
	C123.008377,257.457855 122.822716,259.155273 122.425781,261.111511 
	C122.160004,262.247406 122.105484,263.124420 122.050972,264.001465 
	C120.727539,264.719788 119.406723,266.059052 118.080284,266.064636 
	C92.282257,266.173492 66.483551,266.130280 40.685028,266.095032 
	C39.885574,266.093933 39.086460,265.844299 37.632851,265.600983 
	C43.405056,235.855286 49.139095,206.306290 55.059368,176.157349 
	C55.211739,175.002075 55.177872,174.446747 55.144005,173.891403 
	C55.350273,173.163040 55.556545,172.434677 55.975853,171.084900 
	C56.226662,169.606033 56.264431,168.748566 56.302200,167.891113 
	C58.523708,156.401260 60.889519,144.936310 62.880222,133.406601 
	C63.490303,129.873138 64.497849,128.255310 68.469559,128.399017 
	C77.226021,128.715851 86.001862,128.497437 95.414337,128.497437 
	C94.178436,135.865540 93.060120,142.532623 91.811440,149.812592 
	C91.680611,150.955582 91.680153,151.485718 91.679695,152.015839 
	C91.456635,152.766998 91.233574,153.518158 90.877579,154.901855 
	C90.663551,156.360901 90.582458,157.187378 90.501358,158.013870 
	C90.341904,158.460052 90.182434,158.906235 89.899643,159.947571 
	C89.681656,161.366791 89.587006,162.190842 89.492355,163.014908 
	C89.331459,163.456589 89.170570,163.898285 88.885826,164.944183 
	C88.710045,166.371475 88.658112,167.194534 88.606178,168.017593 
z"/>
<path fill="#EAEAED" opacity="1.000000" stroke="none" 
	d="
M362.136047,185.093475 
	C362.218231,186.764511 362.300476,188.435562 361.956665,190.727661 
	C361.510803,192.778519 361.490906,194.208298 361.471039,195.638092 
	C361.502563,197.956360 361.534088,200.274612 361.371033,203.339447 
	C361.506805,205.422714 361.837128,206.759445 362.167450,208.096161 
	C362.660706,209.509338 363.153961,210.922516 363.483521,212.852356 
	C363.616699,213.946014 363.913544,214.523010 364.210419,215.099991 
	C366.337616,222.250961 365.142853,228.601059 358.992371,233.920731 
	C358.547485,230.938660 358.783325,227.956406 358.986450,224.572266 
	C358.555206,220.839752 358.361969,217.465546 357.668213,214.197617 
	C357.341187,212.657104 356.053375,211.320557 355.197205,209.456390 
	C354.787415,204.725830 354.662842,200.376587 353.855896,196.157852 
	C353.454559,194.059570 352.226257,191.348297 350.570587,190.523895 
	C349.407288,189.944656 346.891296,192.082153 344.675781,193.133759 
	C343.292175,194.186829 342.212097,195.112640 341.136383,196.034729 
	C341.932831,197.315903 342.536621,198.287186 342.982178,199.507629 
	C342.218140,200.533798 341.612305,201.310806 340.770538,202.125366 
	C340.534576,202.162933 340.072784,202.285706 340.052185,201.916656 
	C339.152863,201.085815 337.663666,200.061508 337.490234,200.249725 
	C335.848083,202.031601 334.429840,204.019775 332.647583,206.136673 
	C330.050415,209.665421 328.078461,213.067856 330.208557,217.624695 
	C329.584930,219.616577 329.025024,221.244736 328.167542,222.992065 
	C327.529572,225.063965 327.189178,227.016724 326.879639,229.335693 
	C326.793335,230.423492 326.676239,231.145065 326.181091,231.922363 
	C322.863129,235.355362 323.253876,243.587631 326.932434,247.278122 
	C328.977905,246.754456 330.702942,246.279907 332.234436,245.448761 
	C335.969910,243.421463 339.538574,241.067429 343.363098,239.239761 
	C344.124786,238.875763 346.647034,236.028549 346.832031,240.308777 
	C348.331757,241.154602 350.140472,241.628021 352.229919,242.217514 
	C353.069611,242.563507 353.628601,242.793442 353.906311,243.320709 
	C345.321198,244.891586 337.086121,246.361938 329.670746,251.649002 
	C333.824188,258.594147 339.558136,263.239716 346.028687,267.635559 
	C349.860962,270.389374 353.735748,271.239166 358.327698,269.774811 
	C366.419708,267.341675 367.308411,257.778534 366.103546,250.779129 
	C365.027771,244.529541 359.331024,240.690582 351.662292,240.596832 
	C350.809113,240.263702 350.459167,240.153442 350.302826,239.785156 
	C350.583801,239.330612 350.671204,239.134109 351.079895,238.813599 
	C353.195831,237.304428 354.701233,234.628098 357.414307,237.342438 
	C357.414307,237.342438 357.504730,237.444580 357.733643,237.765106 
	C358.992035,238.297668 360.021515,238.509705 361.050964,238.721741 
	C368.308563,240.952408 371.932343,245.817474 371.901550,253.487640 
	C371.892914,255.642365 371.991608,257.939026 371.315826,259.923615 
	C369.089508,266.461792 369.008820,272.569641 374.093140,278.374268 
	C367.960602,273.367004 361.627228,274.491058 355.047791,275.926178 
	C349.517853,277.132416 345.094971,274.086090 340.999847,270.814758 
	C338.710968,268.986359 336.585114,266.953918 333.303009,265.575256 
	C333.934875,268.374634 334.566742,271.174011 335.198608,273.973419 
	C334.757599,274.186340 334.316559,274.399261 333.875549,274.612183 
	C331.936401,271.666870 329.929443,268.763580 328.071594,265.767822 
	C323.587646,258.537445 319.173401,251.263870 314.380524,243.923981 
	C314.029968,243.840256 314.002258,243.933609 314.070435,243.597504 
	C314.997894,241.851700 315.857208,240.441986 316.933105,238.676910 
	C318.378204,240.364166 319.248138,241.379898 320.521942,242.867142 
	C320.891174,241.678970 321.245789,241.106415 321.214661,240.555679 
	C320.183411,222.306564 325.966003,206.296432 337.085693,192.026871 
	C341.749969,188.353867 346.187775,184.327393 351.163055,181.139877 
	C354.166168,179.215881 358.045868,178.187790 361.026855,182.626801 
	C361.419281,183.851822 361.777649,184.472641 362.136047,185.093475 
M332.641815,265.066895 
	C332.577484,265.284790 332.513184,265.502686 332.448853,265.720581 
	C332.653076,265.644501 332.857300,265.568420 332.641815,265.066895 
z"/>
<path fill="#797A7C" opacity="1.000000" stroke="none" 
	d="
M304.857635,229.852631 
	C306.960297,226.015213 309.148590,222.267731 312.087524,217.234802 
	C302.167114,217.234802 293.976746,217.234802 284.953491,217.234802 
	C286.139496,209.658356 287.555023,202.913742 288.151794,196.097458 
	C288.656097,190.337463 291.205627,188.829559 296.753571,189.050201 
	C308.061462,189.499908 319.400360,189.127060 330.723572,189.292542 
	C332.031952,189.311676 333.321838,190.594742 334.227356,191.827484 
	C323.124237,204.905426 317.981110,219.529449 316.917572,235.953156 
	C316.917572,234.018738 316.917572,232.084320 316.942078,229.769714 
	C316.945618,228.883698 316.924683,228.377853 316.900879,227.696808 
	C316.898041,227.521591 316.867096,227.172485 316.720398,226.892395 
	C312.373657,227.605972 311.305206,229.828445 312.644958,234.015686 
	C309.888428,232.716049 307.498962,231.421646 305.109497,230.127243 
	C305.109497,230.127243 304.943298,229.942581 304.857635,229.852631 
z"/>
<path fill="#252E40" opacity="1.000000" stroke="none" 
	d="
M125.674934,243.979538 
	C125.872810,241.709396 126.070686,239.439255 126.330536,236.458160 
	C109.370560,236.458160 92.664474,236.458160 75.273903,236.458160 
	C78.970139,217.250168 82.513588,198.836105 86.254829,180.119934 
	C86.570686,183.898773 87.268303,188.062576 86.698700,192.045166 
	C84.954018,204.243622 82.729950,216.373718 80.677048,228.527832 
	C79.922890,232.992783 83.714882,233.195572 86.232933,233.838150 
	C88.535217,234.425674 91.170082,233.842667 93.642365,233.607269 
	C102.355927,232.777649 111.062897,231.878601 119.771751,230.999741 
	C123.178642,230.655930 126.583893,230.295837 129.991486,229.942978 
	C129.991486,232.978104 129.991486,236.502960 129.951614,240.875626 
	C129.962494,242.521576 130.013229,243.319702 130.063980,244.117828 
	C130.063980,244.117828 130.151489,244.547623 129.754425,244.703445 
	C128.724335,243.606262 128.091293,242.353256 127.532013,241.246262 
	C126.969864,242.073639 126.322395,243.026596 125.674934,243.979538 
z"/>
<path fill="#444955" opacity="1.000000" stroke="none" 
	d="
M316.917572,230.149902 
	C316.917572,232.084320 316.917572,234.018738 316.917572,235.953156 
	C317.981110,219.529449 323.124237,204.905426 334.060852,192.200226 
	C334.910889,192.039856 335.534515,192.042358 336.621948,192.035873 
	C325.966003,206.296432 320.183411,222.306564 321.214661,240.555679 
	C321.245789,241.106415 320.891174,241.678970 320.521942,242.867142 
	C319.248138,241.379898 318.378204,240.364166 316.933105,238.676910 
	C315.857208,240.441986 314.997894,241.851700 314.115051,243.617004 
	C312.073212,242.632278 310.136810,241.142975 308.020813,239.980560 
	C302.462738,236.927185 302.330536,236.677750 305.067261,230.476761 
	C307.498962,231.421646 309.888428,232.716049 313.012573,234.026581 
	C314.804016,232.745102 315.860779,231.447495 316.917572,230.149902 
M315.471283,237.592010 
	C315.471283,237.592010 315.389282,237.460693 315.471283,237.592010 
z"/>
<path fill="#252E40" opacity="1.000000" stroke="none" 
	d="
M148.167709,149.145142 
	C147.090240,156.153488 146.088303,163.174576 144.909058,170.165741 
	C144.109528,174.905640 143.060928,179.603546 141.930298,184.660828 
	C141.498917,182.958939 140.758438,180.826035 141.107010,178.889114 
	C142.952896,168.631882 145.072586,158.423904 147.513153,148.392120 
	C148.008530,148.771957 148.088120,148.958542 148.167709,149.145142 
z"/>
<path fill="#252E40" opacity="1.000000" stroke="none" 
	d="
M49.144691,270.001221 
	C46.536224,270.001221 44.402908,270.001221 42.269596,270.001221 
	C42.270954,269.775604 42.272316,269.549988 42.273674,269.324371 
	C68.147583,269.324371 94.021492,269.324371 119.895401,269.324371 
	C119.896767,269.549988 119.898132,269.775604 119.899490,270.001221 
	C96.472939,270.001221 73.046394,270.001221 49.144691,270.001221 
z"/>
<path fill="#444955" opacity="1.000000" stroke="none" 
	d="
M357.682678,237.093597 
	C354.701233,234.628098 353.195831,237.304428 350.899414,238.559235 
	C351.086761,236.699402 351.692627,234.930710 352.484772,233.249786 
	C353.612396,230.857040 354.876740,228.528717 356.370911,226.031403 
	C357.445862,225.584671 358.232544,225.279404 359.019196,224.974136 
	C358.783325,227.956406 358.547485,230.938660 358.677704,234.085388 
	C358.679504,235.114807 358.315277,235.979782 357.682678,237.093597 
z"/>
<path fill="#252E40" opacity="1.000000" stroke="none" 
	d="
M200.001068,162.001831 
	C195.518799,162.001999 191.523407,161.811005 187.558243,162.074677 
	C185.212814,162.230637 182.915146,163.105316 179.864487,163.209442 
	C181.039047,162.474152 182.205780,161.114594 183.389374,161.099762 
	C195.807968,160.944092 208.229263,161.003601 220.672302,162.001831 
	C213.948425,162.001831 207.224533,162.001831 200.001068,162.001831 
z"/>
<path fill="#2B3445" opacity="1.000000" stroke="none" 
	d="
M208.445404,216.943756 
	C208.291748,214.255035 208.519028,211.486984 208.941589,208.380432 
	C209.033371,210.982758 208.929855,213.923569 208.445404,216.943756 
z"/>
<path fill="#252E40" opacity="1.000000" stroke="none" 
	d="
M94.906281,152.550140 
	C95.090446,154.484589 94.942856,156.452026 94.795265,158.419449 
	C94.208771,158.338760 93.622276,158.258072 93.035789,158.177383 
	C93.548698,156.312637 94.061607,154.447876 94.906281,152.550140 
z"/>
<path fill="#2B3445" opacity="1.000000" stroke="none" 
	d="
M132.235886,269.997253 
	C130.587280,269.915222 129.360748,269.833374 128.134232,269.751526 
	C128.147034,269.579285 128.159851,269.407074 128.172653,269.234863 
	C131.740158,269.234863 135.307663,269.234863 138.875153,269.234863 
	C138.878204,269.489044 138.881256,269.743225 138.884323,269.997406 
	C136.808868,269.997406 134.733414,269.997406 132.235886,269.997253 
z"/>
<path fill="#2B3445" opacity="1.000000" stroke="none" 
	d="
M150.646622,269.997192 
	C148.265152,269.997498 146.294861,269.997498 144.324570,269.997498 
	C144.321854,269.782349 144.319138,269.567200 144.316422,269.352051 
	C147.512054,269.352051 150.707672,269.352051 153.903305,269.352051 
	C153.913025,269.497375 153.922745,269.642700 153.932480,269.788055 
	C152.974243,269.857666 152.016022,269.927277 150.646622,269.997192 
z"/>
<path fill="#48505C" opacity="1.000000" stroke="none" 
	d="
M138.878174,199.031937 
	C138.792679,201.296555 138.448715,203.703720 137.876617,206.390503 
	C137.514481,206.405029 137.380463,206.139923 137.261292,205.146423 
	C137.458862,203.607056 137.641556,202.796097 137.824249,201.985123 
	C138.089401,201.048248 138.354538,200.111359 138.878174,199.031937 
z"/>
<path fill="#252E40" opacity="1.000000" stroke="none" 
	d="
M122.442566,264.001373 
	C122.105484,263.124420 122.160004,262.247406 122.742371,261.238281 
	C124.182236,261.743683 125.094261,262.381165 126.000565,263.268250 
	C125.994843,263.517883 125.967499,264.016510 125.967499,264.016510 
	C124.923058,264.011444 123.878609,264.006348 122.442566,264.001373 
z"/>
<path fill="#CAC5D3" opacity="1.000000" stroke="none" 
	d="
M362.270874,207.756348 
	C361.837128,206.759445 361.506805,205.422714 361.317688,203.723373 
	C361.764008,204.712677 362.069153,206.064621 362.270874,207.756348 
z"/>
<path fill="#CAC5D3" opacity="1.000000" stroke="none" 
	d="
M361.676697,195.351868 
	C361.490906,194.208298 361.510803,192.778519 361.806580,191.125854 
	C362.015747,192.290543 361.949066,193.678085 361.676697,195.351868 
z"/>
<path fill="#808590" opacity="1.000000" stroke="none" 
	d="
M148.482910,148.972183 
	C148.088120,148.958542 148.008530,148.771957 147.865738,148.287689 
	C148.207047,146.973251 148.611542,145.956467 149.357666,144.876297 
	C149.398880,146.141678 149.098480,147.470444 148.482910,148.972183 
z"/>
<path fill="#252E40" opacity="1.000000" stroke="none" 
	d="
M218.760468,186.908585 
	C219.071930,187.473969 219.075302,187.909561 219.044861,188.670517 
	C218.074158,188.432632 217.137283,187.869354 216.200424,187.306091 
	C216.951080,187.130310 217.701721,186.954544 218.760468,186.908585 
z"/>
<path fill="#2B3445" opacity="1.000000" stroke="none" 
	d="
M160.853271,254.944656 
	C160.641708,254.198776 160.697601,253.366135 160.965591,252.292969 
	C161.158707,252.987595 161.139709,253.922745 160.853271,254.944656 
z"/>
<path fill="#48505C" opacity="1.000000" stroke="none" 
	d="
M56.045887,167.989990 
	C56.264431,168.748566 56.226662,169.606033 55.959633,170.703979 
	C55.750103,169.992584 55.769836,169.040726 56.045887,167.989990 
z"/>
<path fill="#48505C" opacity="1.000000" stroke="none" 
	d="
M130.225037,243.837585 
	C130.013229,243.319702 129.962494,242.521576 129.949692,241.322266 
	C130.264999,240.875641 130.542557,240.831436 131.029358,240.816605 
	C130.954285,241.748932 130.670181,242.653137 130.225037,243.837585 
z"/>
<path fill="#444955" opacity="1.000000" stroke="none" 
	d="
M360.958649,238.370117 
	C360.021515,238.509705 358.992035,238.297668 357.784546,237.810486 
	C358.693146,237.696411 359.779724,237.857468 360.958649,238.370117 
z"/>
<path fill="#48505C" opacity="1.000000" stroke="none" 
	d="
M132.021545,235.991440 
	C132.231369,236.745712 132.188965,237.601624 131.916382,238.695404 
	C131.713898,237.986542 131.741608,237.039795 132.021545,235.991440 
z"/>
<path fill="#ECECED" opacity="1.000000" stroke="none" 
	d="
M389.308685,59.339027 
	C389.835388,59.996735 390.341431,60.999226 390.750366,62.392914 
	C390.198212,61.750683 389.743103,60.717247 389.308685,59.339027 
z"/>
<path fill="#252E40" opacity="1.000000" stroke="none" 
	d="
M88.872131,167.926331 
	C88.658112,167.194534 88.710045,166.371475 88.951912,165.296387 
	C89.140602,165.974594 89.139343,166.904831 88.872131,167.926331 
z"/>
<path fill="#2B3445" opacity="1.000000" stroke="none" 
	d="
M125.971298,264.330841 
	C125.967499,264.016510 125.994843,263.517883 126.164314,263.311096 
	C126.516426,263.445160 126.699059,263.786011 126.881699,264.126892 
	C127.025330,264.506958 127.168953,264.887024 127.612862,265.797424 
	C127.267128,265.766907 126.621117,265.206024 125.971298,264.330841 
z"/>
<path fill="#252E40" opacity="1.000000" stroke="none" 
	d="
M89.767715,162.937637 
	C89.587006,162.190842 89.681656,161.366791 89.980042,160.300644 
	C90.136887,160.992493 90.089989,161.926437 89.767715,162.937637 
z"/>
<path fill="#252E40" opacity="1.000000" stroke="none" 
	d="
M136.926849,208.071259 
	C137.346512,208.461838 137.376343,208.902786 136.995132,209.873810 
	C136.607437,211.063263 136.630783,211.722626 136.654129,212.382004 
	C136.654129,212.382004 136.600739,212.443375 136.561279,212.433838 
	C136.526871,210.990067 136.531937,209.555847 136.926849,208.071259 
z"/>
<path fill="#252E40" opacity="1.000000" stroke="none" 
	d="
M170.783600,221.800507 
	C170.232239,222.040054 169.742355,221.987564 169.252502,221.935059 
	C169.364273,221.496597 169.476044,221.058121 169.587830,220.619644 
	C170.006912,220.915924 170.426010,221.212189 170.783600,221.800507 
z"/>
<path fill="#252E40" opacity="1.000000" stroke="none" 
	d="
M90.776009,157.934525 
	C90.582458,157.187378 90.663551,156.360901 90.954781,155.293701 
	C91.126831,155.987045 91.088745,156.921112 90.776009,157.934525 
z"/>
<path fill="#808590" opacity="1.000000" stroke="none" 
	d="
M251.330917,130.943878 
	C250.944977,130.375336 250.892914,129.752930 250.741302,128.828339 
	C251.280228,128.653931 251.918747,128.781708 252.557251,128.909515 
	C252.259781,129.569672 251.962296,130.229843 251.330917,130.943878 
z"/>
<path fill="#252E40" opacity="1.000000" stroke="none" 
	d="
M137.521332,202.052734 
	C137.641556,202.796097 137.458862,203.607056 137.159180,204.712708 
	C137.100952,204.045029 137.159683,203.082703 137.521332,202.052734 
z"/>
<path fill="#151F30" opacity="1.000000" stroke="none" 
	d="
M392.468567,316.075806 
	C392.809601,316.459106 392.889557,316.900696 392.848938,317.662445 
	C392.554749,317.366455 392.381134,316.750275 392.468567,316.075806 
z"/>
<path fill="#252E40" opacity="1.000000" stroke="none" 
	d="
M91.910622,151.938690 
	C91.680153,151.485718 91.680611,150.955582 91.870331,150.222260 
	C92.086914,150.633209 92.114227,151.247375 91.910622,151.938690 
z"/>
<path fill="#2B3445" opacity="1.000000" stroke="none" 
	d="
M159.941895,259.957062 
	C159.719147,259.503754 159.725525,258.973633 159.912796,258.235229 
	C160.119461,258.644714 160.145233,259.262451 159.941895,259.957062 
z"/>
<path fill="#2B3445" opacity="1.000000" stroke="none" 
	d="
M166.825287,222.952179 
	C166.569275,222.484100 166.579147,221.938187 167.045609,221.189087 
	C167.670334,220.986099 167.838455,220.986328 168.006592,220.986572 
	C167.701462,221.615829 167.396317,222.245087 166.825287,222.952179 
z"/>
<path fill="#2B3445" opacity="1.000000" stroke="none" 
	d="
M165.901886,227.958832 
	C165.669525,227.497681 165.672394,226.962463 165.863159,226.221161 
	C166.079758,226.638290 166.108429,227.261520 165.901886,227.958832 
z"/>
<path fill="#252E40" opacity="1.000000" stroke="none" 
	d="
M141.072693,187.065002 
	C141.308533,187.510025 141.313553,188.036621 141.151215,188.778915 
	C140.936523,188.378601 140.889206,187.762573 141.072693,187.065002 
z"/>
<path fill="#48505C" opacity="1.000000" stroke="none" 
	d="
M132.952286,230.967682 
	C133.186600,231.445206 133.196350,232.001450 132.990906,232.755981 
	C132.759705,232.318314 132.743713,231.682358 132.952286,230.967682 
z"/>
<path fill="#CAC5D3" opacity="1.000000" stroke="none" 
	d="
M362.241638,184.822891 
	C361.777649,184.472641 361.419281,183.851822 361.125549,182.947433 
	C361.575867,183.293365 361.961548,183.922836 362.241638,184.822891 
z"/>
<path fill="#252E40" opacity="1.000000" stroke="none" 
	d="
M87.027222,177.951752 
	C86.788277,177.504105 86.795380,176.930603 86.960083,176.196350 
	C87.169540,176.632370 87.221397,177.229141 87.027222,177.951752 
z"/>
<path fill="#48505C" opacity="1.000000" stroke="none" 
	d="
M54.925339,173.979004 
	C55.177872,174.446747 55.211739,175.002075 55.035988,175.760727 
	C54.786469,175.331558 54.746571,174.699081 54.925339,173.979004 
z"/>
<path fill="#252E40" opacity="1.000000" stroke="none" 
	d="
M87.953255,172.934189 
	C87.722527,172.492584 87.718666,171.968155 87.881592,171.229279 
	C88.092293,171.626999 88.136200,172.239197 87.953255,172.934189 
z"/>
<path fill="#2B3445" opacity="1.000000" stroke="none" 
	d="
M162.969589,243.948456 
	C162.731796,243.502594 162.719589,242.972610 162.879761,242.228943 
	C163.099823,242.631638 163.147491,243.247986 162.969589,243.948456 
z"/>
<path fill="#2B3445" opacity="1.000000" stroke="none" 
	d="
M161.988190,248.951324 
	C161.748077,248.499222 161.731552,247.965561 161.909744,247.231659 
	C162.140213,247.644180 162.175995,248.256989 161.988190,248.951324 
z"/>
<path fill="#CAC5D3" opacity="1.000000" stroke="none" 
	d="
M364.287109,214.830811 
	C363.913544,214.523010 363.616699,213.946014 363.495605,213.226944 
	C363.902161,213.577103 364.132965,214.069366 364.287109,214.830811 
z"/>
<path fill="#252E40" opacity="1.000000" stroke="none" 
	d="
M168.000244,220.725449 
	C167.838455,220.986328 167.670334,220.986099 167.250092,220.992630 
	C166.999405,220.546249 167.000824,220.093109 167.198074,219.354828 
	C167.593903,219.534546 167.793900,219.999435 168.000244,220.725449 
z"/>
<path fill="#20293B" opacity="1.000000" stroke="none" 
	d="
M127.116180,263.832703 
	C126.699059,263.786011 126.516426,263.445160 126.170029,263.061462 
	C125.094261,262.381165 124.182236,261.743683 122.953636,260.979462 
	C122.822716,259.155273 123.008377,257.457855 123.642952,255.319244 
	C124.089195,254.261398 124.086525,253.644730 124.083855,253.028061 
	C124.167297,251.932678 124.250740,250.837296 124.759109,249.301910 
	C125.170898,248.257355 125.157753,247.652802 125.144608,247.048233 
	C125.186424,246.256226 125.228241,245.464203 125.472496,244.325867 
	C126.322395,243.026596 126.969864,242.073639 127.532013,241.246262 
	C128.091293,242.353256 128.724335,243.606262 129.701172,244.916199 
	C130.044998,244.973114 130.008621,244.971466 129.877838,245.263153 
	C129.507370,246.395172 129.267685,247.235504 129.028000,248.075851 
	C128.988251,250.435181 128.948486,252.794495 128.446487,255.636017 
	C127.957672,257.068604 127.931107,258.018982 127.904549,258.969391 
	C127.719917,260.492432 127.535286,262.015503 127.116180,263.832703 
z"/>
<path fill="#2B3445" opacity="1.000000" stroke="none" 
	d="
M128.100327,258.718262 
	C127.931107,258.018982 127.957672,257.068604 128.269379,256.045868 
	C128.468369,256.804749 128.382233,257.635956 128.100327,258.718262 
z"/>
<path fill="#252E40" opacity="1.000000" stroke="none" 
	d="
M129.184540,247.852997 
	C129.267685,247.235504 129.507370,246.395172 129.894379,245.254333 
	C129.808167,245.845932 129.574615,246.738037 129.184540,247.852997 
z"/>
<path fill="#48505C" opacity="1.000000" stroke="none" 
	d="
M136.840240,212.248230 
	C136.630783,211.722626 136.607437,211.063263 136.859955,210.183746 
	C137.099335,210.680557 137.062836,211.397507 136.840240,212.248230 
z"/>
<path fill="#252E40" opacity="1.000000" stroke="none" 
	d="
M123.902733,253.233276 
	C124.086525,253.644730 124.089195,254.261398 123.855698,254.947357 
	C123.653549,254.490585 123.687584,253.964539 123.902733,253.233276 
z"/>
<path fill="#252E40" opacity="1.000000" stroke="none" 
	d="
M124.957932,247.247070 
	C125.157753,247.652802 125.170898,248.257355 124.961380,248.939636 
	C124.749557,248.493546 124.760406,247.969727 124.957932,247.247070 
z"/>
<path fill="#6E4B94" opacity="1.000000" stroke="none" 
	d="
M356.082642,226.172867 
	C354.876740,228.528717 353.612396,230.857040 352.484772,233.249786 
	C351.692627,234.930710 351.086761,236.699402 350.578125,238.683243 
	C350.671204,239.134109 350.583801,239.330612 350.011902,239.753723 
	C348.731873,239.965683 347.936432,239.951035 347.140961,239.936386 
	C346.647034,236.028549 344.124786,238.875763 343.363098,239.239761 
	C339.538574,241.067429 335.969910,243.421463 332.234436,245.448761 
	C330.702942,246.279907 328.977905,246.754456 327.017120,246.803986 
	C326.648590,241.433395 326.603882,236.650024 326.559143,231.866638 
	C326.676239,231.145065 326.793335,230.423492 327.152405,229.106552 
	C327.751251,226.631760 328.108154,224.752335 328.465088,222.872910 
	C329.025024,221.244736 329.584930,219.616577 330.470581,217.412674 
	C332.196106,214.223862 333.595947,211.610779 335.249268,208.786133 
	C337.026123,206.478287 338.549438,204.381989 340.072784,202.285706 
	C340.072784,202.285706 340.534576,202.162933 340.855469,202.487244 
	C346.279510,206.571655 347.444061,202.245834 349.198364,199.248230 
	C349.384094,199.954529 349.480621,200.360168 349.437805,201.151932 
	C351.559814,209.749680 353.821228,217.961273 356.082642,226.172867 
z"/>
<path fill="#714F96" opacity="1.000000" stroke="none" 
	d="
M345.819702,267.356873 
	C339.558136,263.239716 333.824188,258.594147 329.670746,251.649002 
	C337.086121,246.361938 345.321198,244.891586 354.152832,243.475861 
	C355.477234,243.979233 356.216431,244.717224 357.080444,245.254532 
	C361.104004,247.756760 365.284973,250.664810 363.815186,255.976334 
	C362.564270,260.497101 359.754120,264.586395 357.320679,268.708435 
	C353.278290,268.152466 349.549011,267.754669 345.819702,267.356873 
z"/>
<path fill="#3A3E4E" opacity="1.000000" stroke="none" 
	d="
M357.633789,268.866577 
	C359.754120,264.586395 362.564270,260.497101 363.815186,255.976334 
	C365.284973,250.664810 361.104004,247.756760 357.080444,245.254532 
	C356.216431,244.717224 355.477234,243.979233 354.434082,243.178513 
	C353.628601,242.793442 353.069611,242.563507 352.284302,242.006989 
	C352.126770,241.397598 352.162598,241.110687 352.165497,240.819672 
	C359.331024,240.690582 365.027771,244.529541 366.103546,250.779129 
	C367.308411,257.778534 366.419708,267.341675 358.288849,269.540527 
	C357.897766,269.262238 357.633789,268.866577 357.633789,268.866577 
z"/>
<path fill="#A1A3A9" opacity="1.000000" stroke="none" 
	d="
M356.370911,226.031403 
	C353.821228,217.961273 351.559814,209.749680 349.676392,201.197464 
	C350.550812,200.854935 351.047272,200.853012 351.686462,201.263885 
	C352.505188,205.260361 353.181244,208.844009 353.857330,212.427658 
	C354.177917,212.366043 354.498535,212.304428 354.819122,212.242798 
	C354.946381,211.459061 355.073669,210.675308 355.200928,209.891571 
	C356.053375,211.320557 357.341187,212.657104 357.668213,214.197617 
	C358.361969,217.465546 358.555206,220.839752 358.986450,224.572266 
	C358.232544,225.279404 357.445862,225.584671 356.370911,226.031403 
z"/>
<path fill="#3A3E4E" opacity="1.000000" stroke="none" 
	d="
M355.197235,209.456390 
	C355.073669,210.675308 354.946381,211.459061 354.819122,212.242798 
	C354.498535,212.304428 354.177917,212.366043 353.857330,212.427658 
	C353.181244,208.844009 352.505188,205.260361 351.708435,200.887085 
	C351.496582,195.765900 350.729309,192.064438 344.979370,193.006531 
	C346.891296,192.082153 349.407288,189.944656 350.570587,190.523895 
	C352.226257,191.348297 353.454559,194.059570 353.855896,196.157852 
	C354.662842,200.376587 354.787415,204.725830 355.197235,209.456390 
z"/>
<path fill="#D4D4D5" opacity="1.000000" stroke="none" 
	d="
M344.675781,193.133774 
	C350.729309,192.064438 351.496582,195.765900 351.565735,200.474274 
	C351.047272,200.853012 350.550812,200.854935 349.815735,200.811325 
	C349.480621,200.360168 349.384094,199.954529 349.200714,198.886292 
	C347.122711,198.568619 345.131561,198.913544 343.140442,199.258469 
	C342.536621,198.287186 341.932831,197.315903 341.136383,196.034729 
	C342.212097,195.112640 343.292175,194.186829 344.675781,193.133774 
z"/>
<path fill="#CAC5D3" opacity="1.000000" stroke="none" 
	d="
M326.181091,231.922363 
	C326.603882,236.650024 326.648590,241.433395 326.608643,246.690918 
	C323.253876,243.587631 322.863129,235.355362 326.181091,231.922363 
z"/>
<path fill="#D4D4D5" opacity="1.000000" stroke="none" 
	d="
M340.052185,201.916656 
	C338.549438,204.381989 337.026123,206.478287 334.997559,208.594971 
	C333.977234,207.726425 333.462158,206.837479 332.947083,205.948532 
	C334.429840,204.019775 335.848083,202.031601 337.490234,200.249725 
	C337.663666,200.061508 339.152863,201.085815 340.052185,201.916656 
z"/>
<path fill="#714F96" opacity="1.000000" stroke="none" 
	d="
M342.982178,199.507629 
	C345.131561,198.913544 347.122711,198.568619 349.111511,198.585632 
	C347.444061,202.245834 346.279510,206.571655 341.091431,202.449677 
	C341.612305,201.310806 342.218140,200.533798 342.982178,199.507629 
z"/>
<path fill="#CAC5D3" opacity="1.000000" stroke="none" 
	d="
M332.647583,206.136673 
	C333.462158,206.837479 333.977234,207.726425 334.744019,208.806534 
	C333.595947,211.610779 332.196106,214.223862 330.534271,217.048965 
	C328.078461,213.067856 330.050415,209.665421 332.647583,206.136673 
z"/>
<path fill="#6E4B94" opacity="1.000000" stroke="none" 
	d="
M357.320679,268.708435 
	C357.633789,268.866577 357.897766,269.262238 357.936646,269.496521 
	C353.735748,271.239166 349.860962,270.389374 346.028687,267.635559 
	C349.549011,267.754669 353.278290,268.152466 357.320679,268.708435 
z"/>
<path fill="#CAC5D3" opacity="1.000000" stroke="none" 
	d="
M328.167542,222.992065 
	C328.108154,224.752335 327.751251,226.631760 327.121582,228.740326 
	C327.189178,227.016724 327.529572,225.063965 328.167542,222.992065 
z"/>
<path fill="#626975" opacity="1.000000" stroke="none" 
	d="
M351.662292,240.596832 
	C352.162598,241.110687 352.126770,241.397598 352.003571,241.890930 
	C350.140472,241.628021 348.331757,241.154602 346.832031,240.308777 
	C347.936432,239.951035 348.731873,239.965683 349.818298,240.011749 
	C350.459167,240.153442 350.809113,240.263702 351.662292,240.596832 
z"/>
<path fill="#20293B" opacity="1.000000" stroke="none" 
	d="
M332.851685,265.279602 
	C332.857300,265.568420 332.653076,265.644501 332.448853,265.720581 
	C332.513184,265.502686 332.577484,265.284790 332.851685,265.279602 
z"/>
<path fill="#626975" opacity="1.000000" stroke="none" 
	d="
M316.942078,229.769714 
	C315.860779,231.447495 314.804016,232.745102 313.379639,234.031799 
	C311.305206,229.828445 312.373657,227.605972 316.579346,226.941925 
	C316.584991,227.271545 316.528198,227.658936 316.528198,227.658936 
	C316.528198,227.658936 316.903748,227.872025 316.903748,227.872025 
	C316.924683,228.377853 316.945618,228.883698 316.942078,229.769714 
z"/>
<path fill="#444955" opacity="1.000000" stroke="none" 
	d="
M316.900879,227.696808 
	C316.903748,227.872025 316.528198,227.658936 316.528198,227.658936 
	C316.528198,227.658936 316.584991,227.271545 316.726044,227.222015 
	C316.867096,227.172485 316.898041,227.521591 316.900879,227.696808 
z"/>
<path fill="#626975" opacity="1.000000" stroke="none" 
	d="
M315.430298,237.526352 
	C315.389282,237.460693 315.471283,237.592010 315.430298,237.526352 
z"/>
</svg>